<svg width="20" height="26" viewBox="0 0 20 26" fill="none" xmlns="http://www.w3.org/2000/svg">
<path d="M17.5063 19.775V12.25C17.5063 11.2188 16.6625 10.375 15.6313 10.375H4.36875C3.3375 10.375 2.49375 11.2188 2.49375 12.25V19.775H0.625V21.65C0.625 22.6813 1.46875 23.525 2.5 23.525H17.5C18.5312 23.525 19.375 22.6813 19.375 21.65V19.775H17.5063ZM10 12.25C10.3438 12.25 10.625 12.5313 10.625 12.875C10.625 13.2188 10.3438 13.5 10 13.5C9.65625 13.5 9.375 13.2188 9.375 12.875C9.375 12.5313 9.65625 12.25 10 12.25ZM18.125 21.65C18.125 21.9938 17.8438 22.275 17.5 22.275H2.5C2.15625 22.275 1.875 21.9938 1.875 21.65V21.025H7.5C7.5 21.3688 7.78125 21.65 8.125 21.65H11.875C12.2188 21.65 12.5 21.3688 12.5 21.025H18.125V21.65Z" fill="#03050F"/>
</svg>
